<svg width="16" height="16" viewBox="0 0 16 16" fill="none" xmlns="http://www.w3.org/2000/svg">
<path d="M14.8212 3.18358C14.8779 3.24162 14.9228 3.31057 14.9535 3.38649C14.9842 3.4624 15 3.54379 15 3.62598C15 3.70817 14.9842 3.78955 14.9535 3.86547C14.9228 3.94138 14.8779 4.01033 14.8212 4.06838L6.30059 12.8164C6.24405 12.8746 6.17689 12.9208 6.10295 12.9523C6.02901 12.9838 5.94974 13 5.86969 13C5.78963 13 5.71037 12.9838 5.63643 12.9523C5.56249 12.9208 5.49532 12.8746 5.43879 12.8164L1.17848 8.4424C1.0642 8.32507 1 8.16593 1 8C1 7.83407 1.0642 7.67493 1.17848 7.5576C1.29277 7.44027 1.44777 7.37435 1.60938 7.37435C1.771 7.37435 1.926 7.44027 2.04028 7.5576L5.86969 11.4905L13.9594 3.18358C14.0159 3.12539 14.0831 3.07922 14.157 3.04772C14.231 3.01621 14.3102 3 14.3903 3C14.4704 3 14.5496 3.01621 14.6236 3.04772C14.6975 3.07922 14.7647 3.12539 14.8212 3.18358Z" fill="#CFFF46" stroke="#CFFF46" stroke-width="0.6"/>
</svg>
